<?xml version="1.0" encoding="utf-8"?>
<!-- Generator: Adobe Illustrator 14.0.0, SVG Export Plug-In . SVG Version: 6.00 Build 43363)  -->
<!DOCTYPE svg PUBLIC "-//W3C//DTD SVG 1.1//EN" "http://www.w3.org/Graphics/SVG/1.1/DTD/svg11.dtd">
<svg version="1.1" id="Layer_1" xmlns="http://www.w3.org/2000/svg" xmlns:xlink="http://www.w3.org/1999/xlink" x="0px" y="0px"
	 width="345px" height="361px" viewBox="0 0 345 361" enable-background="new 0 0 345 361" xml:space="preserve">
<g>
	<image overflow="visible" opacity="0.75" width="345" height="361" xlink:href="A1407BC.png" >
	</image>
	<g>
		<g>
			<g>
				<path fill="#FFFFFF" d="M171.793,170.913h11.502c0,0-0.556-4.794-3.835-4.794c-3.277,0-11.697,0-11.697,0l-1.72,4.794
					l-1.214-4.794c0,0-5.206,0-7.412,0c-2.207,0-2.877,4.794-2.877,4.794h10.544l2.876,2.876v9.585h-1.917
					c0,0-1.918-0.866-1.918-1.918c0-1.051,0-3.833,0-3.833s-2.136,0-3.832,0c-1.7,0-1.918-2.875-1.918-2.875h5.75l-0.958-0.959
					H155.5v6.71l5.75,8.625h3.834v-1.918h0.959l0.958,1.918h2.875l0.959-1.918h0.958v1.918h7.667l4.794-7.668v-7.667h-13.419
					L171.793,170.913z M180.42,174.748c0,0-0.7,2.875-1.918,2.875h-2.875c-1.039,0-2.876-2.875-2.876-2.875H180.42z"/>
				<path fill="#FFFFFF" d="M158.294,149.808c-0.182-0.051-0.352-0.104-0.536-0.154c-2.136-0.581-3.996-0.774-5.614-0.716
					l1.354,2.483c1.45,0.002,3.086,0.206,4.931,0.71c3.725,1.015,6.728,2.147,9.438,3.105c0.899,0.318,1.768,0.615,2.62,0.885
					l0.613-0.885l0.693-1.004c-2.991-0.8-6.065-2.068-9.909-3.334l-4.467-11.616L158.294,149.808z"/>
				<path fill="#FFFFFF" d="M177.448,155.236l-0.923,2.153c1.816,0.13,3.722,0.013,5.864-0.465c2.527-0.563,4.38-1.123,5.76-1.636
					l-0.054-0.375l-0.279-1.946c-0.607,0.219-1.309,0.445-2.102,0.679l-3.379-14.364v15.228c-0.047,0.01-0.091,0.021-0.139,0.031
					c-1.677,0.373-3.214,0.53-4.675,0.523L177.448,155.236z"/>
				<polygon fill="#FFFFFF" points="167,192 166.041,193.916 172.751,193.916 171.793,192 				"/>
				<path fill="#FFFFFF" d="M298.533,45.003c-15.346-17.924-36.379-27.796-59.228-27.796c-34.565,0-55.999,16.991-66.874,29.08
					c-10.875-12.089-32.31-29.08-66.875-29.08c-22.848,0-43.882,9.872-59.228,27.796c-17.43,20.359-25.353,48.434-21.193,75.1
					c3.911,25.071,18.445,52.672,40.925,77.717c25.589,28.508,60.973,53.243,102.326,71.533l4.045,1.789l4.045-1.789
					c41.354-18.29,76.736-43.025,102.324-71.533c22.48-25.045,37.015-52.646,40.926-77.717
					C323.886,93.437,315.963,65.362,298.533,45.003z M184.577,123.196h4.403l-4.403,5.203V123.196z M180.83,135.922l10.133-11.973
					l-5.552,15.729c0.551,0.593,1.066,1.218,1.546,1.869l7.839-6.097l-6.156,8.794c0.566,1.077,1.037,2.21,1.404,3.387l6.669-5.472
					l-5.878,9.238c0.069,0.628,0.106,1.265,0.119,1.907l2.208,1.406l7.385,4.7l-9.584-2.256v-1.164c0,0-0.186,0.357-1.065,0.914
					c-1.189,0.753-3.655,1.872-8.711,2.998c-2.961,0.657-5.477,0.644-7.924,0.232l2.1-4.899l3.14-7.327l-5.071,7.327l-2.959,4.271
					c-3.895-1.08-7.969-2.922-13.726-4.491c-0.121-0.035-0.236-0.06-0.356-0.09c-1.254-0.32-2.416-0.512-3.484-0.594l-4.534-8.313
					l-1.585-2.903l1.128,4.133l1.949,7.147c-0.548,0.069-1.061,0.168-1.543,0.291c-0.496,0.124-0.959,0.273-1.388,0.439
					c-2.274,0.886-3.658,2.256-4.337,3.085l-5.429-2.924l-6.587-3.547l10.415,3.207l2.045,0.627c0,0,0.355-0.345,1.048-0.797
					c0.64-0.415,1.565-0.919,2.79-1.328c0.009-0.742,0.057-1.471,0.142-2.191l-6.391-23.436l8.758,16.06
					c1.397-2.55,3.321-4.79,5.636-6.59l-5.273-11.428l8.496,9.344c3.162-1.679,6.799-2.636,10.673-2.636
					C173.308,132.574,177.394,133.807,180.83,135.922z M201.869,158.162l-8.96-5.983c-0.006-0.096-0.013-0.19-0.02-0.284
					l12.226-19.216l-13.949,11.444l12.883-18.403l-15.976,12.426l5.276-14.949h98.62l-36.359,25.07c0,0-9.27-0.06-23.171,4.94
					c-15.288,5.499-23.227,14.973-23.227,14.973c-0.616-6.981,7.66-10.793,7.66-10.793
					C212.372,156.598,206.953,157.146,201.869,158.162z M135.678,167.287l-0.377,0.48c-1.716-1.876-9.467-9.743-22.861-14.561
					c-13.9-5-23.17-4.94-23.17-4.94l-36.36-25.07h84.385l7.696,28.224c-0.021,0.213-0.039,0.426-0.055,0.64
					c-0.685,0.302-1.334,0.651-1.941,1.045c-0.133,0.087-0.257,0.172-0.371,0.252l-30.973-9.536l24.832,13.372
					c-2.971-0.269-5.877-0.261-8.476,0.194C128.007,157.387,135.553,160.879,135.678,167.287z M140.384,123.196h5.931l6.25,13.543
					c-1.117,0.994-2.127,2.079-3.022,3.251L140.384,123.196z M150.025,123.196h10.261v8.923c-0.53,0.196-1.056,0.403-1.57,0.635
					L150.025,123.196z M105.557,27.207c26.398,0,44.179,11.164,54.729,21.008v50.69H34.367
					C37.558,61.647,65.384,27.207,105.557,27.207z M147.387,247.974c0,0-0.233-0.144-0.646-0.399
					c-63.894-34.749-99.006-80.937-109.368-118.232c12.608,9.011,41.355,29.432,46.53,32.019c6.667,3.333,10.871,5.065,10.871,5.065
					s33.601,12.576,40.447,16.563c2.173,1.265,7.219,9.219,9.386,13.603c0.413,0.836,0.892,1.821,1.371,2.817l-0.665,2.282v0.64
					c-0.918-0.85-1.923-1.894-2.873-3.123c-2.833-3.666-4-6.5-7-8.5c0,0,2.199,11.93,3,17.628c4.099,7.925,5.764,14.539,11.5,20.206
					c0,0-5.166-2.333-8.333-6c0,0,0.812,6.965,3.043,15.912c15.331,8.677,27.782,21.754,27.782,21.754L147.387,247.974z
					 M193.824,181.848c0,2.561-2.334,6.489-3.315,8.028v6.343l1.677,5.757c0,0,0,0.957,0,4.458c0,3.5-4.792,7.043-4.792,7.043
					v-10.102l-1.677-6.471v-6.346c0.981-1.538,3.315-5.467,3.315-8.026v-18.466l-2.183-0.82c0,0,0,16.682,0,19.168
					c0,2.485-3.314,7.459-3.314,7.459v7.158l1.677,6.47v5.75l-1.917,2.876c0,0,0,0.085,0,4.225c0,4.144-4.673,7.668-4.673,7.668
					v-11.893c0,0-0.12,1.972-0.12,0c0-1.974,1.918-2.876,1.918-2.876v-4.399l-1.678-3.986v-5.033h-1.198v5.752l-7.668,6.708
					l-7.667-6.708v-5.752h-1.198v5.033l-1.677,3.986v4.399c0,0,1.916,0.733,1.916,2.876s-0.12,0-0.12,0v11.893
					c0,0-4.671-3.711-4.671-7.668s0-4.225,0-4.225l-1.919-2.876v-5.75l1.678-6.47v-6.949c0,0-5.511-4.883-5.511-8.626
					c0-3.746,0-18.21,0-18.21l-2.436,1.218v18.068c0,2.56,4.529,6.488,5.511,8.026v6.346l-1.677,6.471v11.062
					c0,0-4.793-5.459-4.793-8.003c0-2.541,0-4.458,0-4.458l1.678-5.757v-6.343c-0.981-1.539-5.512-5.468-5.512-8.028V166.86
					l-8.106,4.053l7.62-9.701l0.048,0.116c0,0,3.834-6.71,14.377-3.835c10.543,2.876,15.334,6.711,23.961,4.795
					c0.485-0.11,0.937-0.216,1.373-0.326c0.113-0.025,0.221-0.054,0.328-0.08c0.377-0.095,0.738-0.189,1.08-0.283
					c0.045-0.011,0.093-0.025,0.138-0.037c0.383-0.105,0.742-0.211,1.082-0.315c0.074-0.023,0.145-0.045,0.217-0.067
					c0.287-0.091,0.559-0.178,0.816-0.267c0.048-0.018,0.099-0.031,0.146-0.049c0.295-0.104,0.571-0.205,0.829-0.303
					c0.04-0.014,0.075-0.03,0.116-0.047c0.219-0.085,0.425-0.169,0.619-0.25c0.042-0.02,0.084-0.037,0.126-0.054
					c0.216-0.094,0.416-0.187,0.601-0.275c0.015-0.006,0.027-0.014,0.043-0.02c0.164-0.082,0.315-0.159,0.457-0.235
					c0.035-0.02,0.068-0.038,0.103-0.056c0.288-0.16,0.523-0.307,0.714-0.439c0.029-0.02,0.055-0.038,0.081-0.057
					c0.07-0.049,0.133-0.097,0.19-0.143c0.018-0.012,0.036-0.026,0.052-0.04l0.004-0.004l9.096,9.096l-5.764-2.168V181.848z
					 M197.486,247.927c4.341-12.973,5.787-25.386,5.787-25.386c-3.167,3.667-8.334,6-8.334,6c5.737-5.667,7.401-12.281,11.5-20.206
					c0.801-5.698,3-17.628,3-17.628c-3,2-4.166,4.834-7,8.5c-2.833,3.666-6.166,5.718-6.166,5.718s2.458-5.214,4-8.334
					c2.166-4.384,7.213-12.338,9.385-13.603c6.848-3.986,40.448-16.563,40.448-16.563s4.204-1.732,10.87-5.065
					c5.172-2.586,33.891-22.985,46.51-32.004C297.084,166.775,261.78,213.144,197.486,247.927z M184.577,98.905V48.214
					c10.551-9.843,28.331-21.007,54.729-21.007c40.173,0,67.999,34.44,71.189,71.698H184.577z"/>
			</g>
			<g>
				<path fill="#FFFFFF" d="M69.945,328.997c0.073-1.897,0.219-3.869,0.292-5.985h-0.219c-2.847,4.744-6.277,6.569-9.125,6.569
					c-5.183,0-7.738-4.453-7.738-10.73c0-10.804,5.402-26.134,20.731-26.134c3.577,0,7.154,0.584,9.344,1.46l-3.942,19.855
					c-0.876,4.161-1.533,11.096-1.46,14.965H69.945z M73.229,299.725c-0.729-0.146-1.387-0.219-1.897-0.219
					c-5.986,0-9.198,11.898-9.271,17.154c0,3.139,0.438,5.402,2.701,5.402c2.482,0,4.818-4.088,6.132-10.585L73.229,299.725z"/>
				<path fill="#FFFFFF" d="M81.187,328.997l4.599-24.089c0.803-4.161,1.387-8.249,1.898-11.607h7.811l-0.365,4.891h0.146
					c2.409-3.649,5.693-5.475,9.709-5.475c3.431,0,5.475,2.336,5.985,5.475c2.336-3.357,5.767-5.475,9.782-5.475
					c4.453,0,6.569,3.139,6.569,7.738c0,1.533-0.364,4.307-0.876,7.227l-4.088,21.315h-8.979l4.015-21.169
					c0.365-1.972,0.584-3.724,0.584-5.329c0-1.46-0.729-2.482-2.189-2.482c-1.972,0-4.672,2.993-6.06,10.001l-3.649,18.979h-8.76
					l4.015-21.169c0.365-1.825,0.584-3.504,0.584-5.11s-0.584-2.701-2.044-2.701c-1.825,0-4.817,3.285-6.059,10.001l-3.577,18.979
					H81.187z"/>
				<path fill="#FFFFFF" d="M156.375,305.199c0,11.242-5.985,24.382-16.862,24.382c-8.979,0-10.949-7.081-10.949-12.337
					c0-12.045,6.643-24.527,17.446-24.527C155.062,292.717,156.375,300.236,156.375,305.199z M137.615,316.807
					c0,2.628,0.072,5.84,2.92,5.84c4.38,0,6.861-12.118,6.861-18.542c0-2.409-0.656-4.452-2.847-4.452
					C140.607,299.652,137.542,310.675,137.615,316.807z"/>
				<path fill="#FFFFFF" d="M155.719,328.997l4.6-24.235c0.803-4.088,1.313-8.176,1.824-11.461h7.811
					c-0.146,1.825-0.291,3.723-0.511,5.913h0.22c2.627-4.526,5.84-6.497,8.832-6.497c0.584,0,1.022,0,1.46,0.146l-1.679,9.125
					c-0.365,0-1.021-0.073-1.533-0.073c-3.941,0-7.664,4.525-8.76,10.585l-3.139,16.497H155.719z"/>
				<path fill="#FFFFFF" d="M198.788,327.464c-3.139,1.314-6.204,1.972-10.292,1.972c-8.76,0-12.118-5.768-12.118-13.432
					c0-10.366,5.767-23.287,17.154-23.287c6.497,0,9.417,4.818,9.49,9.709c0,9.781-7.884,13.432-17.812,13.14
					c-0.073,1.022,0,2.847,0.803,4.161c0.876,1.46,2.482,2.555,4.964,2.555c2.993,0,5.11-0.73,7.227-1.752L198.788,327.464z
					 M192.364,300.017c-2.773,0-5.256,3.577-6.277,8.687c4.817,0.22,8.833-1.679,8.833-5.401
					C194.92,301.258,194.116,300.017,192.364,300.017z"/>
				<path fill="#FFFFFF" d="M211.344,280.453c2.482-0.511,5.84-0.876,9.417-0.876c5.913,0,9.781,2.044,12.117,5.037
					c2.774,3.431,3.65,7.884,3.65,12.774c0,12.482-5.548,23.067-10.585,27.155c-4.015,3.358-8.395,4.672-14.892,4.672
					c-2.847,0-6.497-0.292-8.76-0.948L211.344,280.453z M212.365,321.26c0.584,0.072,1.461,0.219,2.409,0.219
					c2.993,0,6.351-2.409,8.468-6.789c2.336-4.672,3.942-10.804,3.942-18.25c0-4.672-1.46-9.489-6.132-9.489
					c-0.876,0-1.606,0-2.044,0.146L212.365,321.26z"/>
				<path fill="#FFFFFF" d="M253.975,279.797l-9.417,49.2h-9.124l9.416-49.2H253.975z"/>
				<path fill="#FFFFFF" d="M285.875,294.834c0,10.438-3.432,23.578-9.928,30.075c-3.066,3.065-6.57,4.672-10.877,4.672
					c-10.658,0-12.19-10.657-12.19-16.06c0-10.001,3.431-23.141,10.22-29.783c2.92-2.847,6.496-4.525,10.804-4.525
					C284.561,279.213,285.875,288.994,285.875,294.834z M269.377,288.775c-4.525,4.599-7.08,18.322-7.08,25.622
					c0,2.774,0.364,7.153,4.16,7.153c1.022,0,2.117-0.511,2.993-1.459c4.891-4.818,7.008-20.659,7.008-25.988
					c0-3.139-0.438-6.861-3.796-6.861C271.494,287.242,270.399,287.753,269.377,288.775z"/>
			</g>
		</g>
	</g>
</g>
</svg>
